<svg width="24" height="24" viewBox="0 0 24 24" fill="none" xmlns="http://www.w3.org/2000/svg">
<path d="M4.5 7.5L19.5 7.5C20.3284 7.5 21 8.17157 21 9C21 9.82843 20.3284 10.5 19.5 10.5L4.5 10.5C3.67157 10.5 3 9.82843 3 9C3 8.17157 3.67157 7.5 4.5 7.5Z" fill="#9945FF"/>
<path d="M4.5 13.5L19.5 13.5C20.3284 13.5 21 14.1716 21 15C21 15.8284 20.3284 16.5 19.5 16.5L4.5 16.5C3.67157 16.5 3 15.8284 3 15C3 14.1716 3.67157 13.5 4.5 13.5Z" fill="#14F195"/>
<path d="M4.5 1.5L19.5 1.5C20.3284 1.5 21 2.17157 21 3C21 3.82843 20.3284 4.5 19.5 4.5L4.5 4.5C3.67157 4.5 3 3.82843 3 3C3 2.17157 3.67157 1.5 4.5 1.5Z" fill="#9945FF"/>
<path d="M4.5 19.5L19.5 19.5C20.3284 19.5 21 20.1716 21 21C21 21.8284 20.3284 22.5 19.5 22.5L4.5 22.5C3.67157 22.5 3 21.8284 3 21C3 20.1716 3.67157 19.5 4.5 19.5Z" fill="#14F195"/>
</svg>
